<svg width="82" height="27" viewBox="0 0 82 27" fill="none" xmlns="http://www.w3.org/2000/svg">
<g filter="url(#filter0_i_9_453)">
<rect x="0.464844" y="0.879883" width="80" height="25" rx="8.96529" fill="#810103"/>
</g>
<g filter="url(#filter1_i_9_453)">
<rect x="42.9219" y="3.01221" width="35" height="21" rx="8.96529" fill="url(#paint0_radial_9_453)"/>
</g>
<rect x="43.2667" y="3.35703" width="34.3104" height="20.3104" rx="8.62047" stroke="#47770D" stroke-width="0.689638"/>
<path d="M57.0845 15.7279C56.2305 15.7279 55.5702 15.5039 55.1035 15.0559C54.6415 14.6079 54.4105 13.8915 54.4105 12.9069C54.4105 11.9222 54.6415 11.2059 55.1035 10.7579C55.5702 10.3099 56.2305 10.0859 57.0845 10.0859C57.9385 10.0859 58.5965 10.3099 59.0585 10.7579C59.5252 11.2059 59.7585 11.9222 59.7585 12.9069C59.7585 13.8915 59.5252 14.6079 59.0585 15.0559C58.5965 15.5039 57.9385 15.7279 57.0845 15.7279ZM57.0845 14.4819C57.2432 14.4819 57.3622 14.4399 57.4415 14.3559C57.5208 14.2719 57.5605 14.1412 57.5605 13.9639V11.8499C57.5605 11.6725 57.5208 11.5419 57.4415 11.4579C57.3622 11.3739 57.2432 11.3319 57.0845 11.3319C56.9258 11.3319 56.8068 11.3739 56.7275 11.4579C56.6482 11.5419 56.6085 11.6725 56.6085 11.8499V13.9639C56.6085 14.1459 56.6482 14.2789 56.7275 14.3629C56.8068 14.4422 56.9258 14.4819 57.0845 14.4819ZM64.0284 10.1839H66.3244V11.3319H65.9744V15.6299H64.0074L61.9564 12.4729V14.4819H62.2924V15.6299H59.9964V14.4819H60.3464V11.3319H59.9964V10.1839H62.5234L64.3644 12.9909V11.3319H64.0284V10.1839Z" fill="white"/>
<defs>
<filter id="filter0_i_9_453" x="0.464844" y="0.879883" width="80" height="27.7586" filterUnits="userSpaceOnUse" color-interpolation-filters="sRGB">
<feFlood flood-opacity="0" result="BackgroundImageFix"/>
<feBlend mode="normal" in="SourceGraphic" in2="BackgroundImageFix" result="shape"/>
<feColorMatrix in="SourceAlpha" type="matrix" values="0 0 0 0 0 0 0 0 0 0 0 0 0 0 0 0 0 0 127 0" result="hardAlpha"/>
<feOffset dy="2.75855"/>
<feGaussianBlur stdDeviation="1.37928"/>
<feComposite in2="hardAlpha" operator="arithmetic" k2="-1" k3="1"/>
<feColorMatrix type="matrix" values="0 0 0 0 0 0 0 0 0 0 0 0 0 0 0 0 0 0 0.25 0"/>
<feBlend mode="normal" in2="shape" result="effect1_innerShadow_9_453"/>
</filter>
<filter id="filter1_i_9_453" x="42.9219" y="0.253656" width="35" height="23.7586" filterUnits="userSpaceOnUse" color-interpolation-filters="sRGB">
<feFlood flood-opacity="0" result="BackgroundImageFix"/>
<feBlend mode="normal" in="SourceGraphic" in2="BackgroundImageFix" result="shape"/>
<feColorMatrix in="SourceAlpha" type="matrix" values="0 0 0 0 0 0 0 0 0 0 0 0 0 0 0 0 0 0 127 0" result="hardAlpha"/>
<feOffset dy="-2.75855"/>
<feGaussianBlur stdDeviation="1.72409"/>
<feComposite in2="hardAlpha" operator="arithmetic" k2="-1" k3="1"/>
<feColorMatrix type="matrix" values="0 0 0 0 0 0 0 0 0 0 0 0 0 0 0 0 0 0 0.37 0"/>
<feBlend mode="normal" in2="shape" result="effect1_innerShadow_9_453"/>
</filter>
<radialGradient id="paint0_radial_9_453" cx="0" cy="0" r="1" gradientUnits="userSpaceOnUse" gradientTransform="translate(68.0001 13.5122) rotate(151.481) scale(21.992 40.0407)">
<stop stop-color="#2DDF00"/>
<stop offset="1" stop-color="#187900"/>
</radialGradient>
</defs>
</svg>
